<svg width="1440" height="1024" viewBox="0 0 1440 1024" fill="none" xmlns="http://www.w3.org/2000/svg">
<g clip-path="url(#clip0)">
<rect width="1440" height="1024" fill="white"/>
<g opacity="0.15">
<path d="M394.706 -136.25C394.706 -136.25 524.57 160.334 337.589 533.138C150.608 905.942 416.897 1181.3 775.035 1183.42" stroke="black" stroke-miterlimit="10"/>
<path d="M481.347 -46.3289C481.347 -46.3289 614.298 150.107 496.205 379.347C378.112 608.586 202.516 863.683 684.729 1093.89" stroke="black" stroke-miterlimit="10"/>
<path d="M546.375 1441.61C541.358 1436.59 50.2679 1272.96 187.078 925.624C323.889 578.098 219.496 421.413 -74 230.958" stroke="black" stroke-miterlimit="10"/>
<path d="M1467.19 -260.131C1467.19 -260.131 1477.03 63.4668 1164.43 339.596C851.835 615.726 996.364 970.584 1327.68 1106.24" stroke="black" stroke-miterlimit="10"/>
<path d="M1543.22 -97.271C1543.22 -97.271 1593.39 134.67 1398.11 303.319C1202.83 471.969 945.036 642.934 1306.65 1036.58" stroke="black" stroke-miterlimit="10"/>
<path d="M1153.44 1088.48C1150.73 1082.12 671.608 777.236 928.248 505.93C1184.89 234.625 1146.49 50.1525 945.036 -236.011" stroke="black" stroke-miterlimit="10"/>
</g>
</g>
<defs>
<clipPath id="clip0">
<rect width="1440" height="1024" fill="white"/>
</clipPath>
</defs>
</svg>
