<svg width="26" height="26" viewBox="0 0 26 26" fill="none" xmlns="http://www.w3.org/2000/svg">
<path d="M24.9844 17.875C25.5453 17.875 26 17.4203 26 16.8594V4.0625C26 1.82237 24.1776 0 21.9375 0H4.0625C1.82237 0 0 1.82237 0 4.0625V21.9375C0 24.1776 1.82237 26 4.0625 26H21.9375C24.1776 26 26 24.1776 26 21.9375C26 21.3765 25.5453 20.9219 24.9844 20.9219C24.4234 20.9219 23.9688 21.3765 23.9688 21.9375C23.9688 23.0575 23.0575 23.9688 21.9375 23.9688H16.9609V16.5547H19.3116C19.8255 16.5547 20.2585 16.1707 20.32 15.6605L20.4545 14.5433C20.5271 13.9387 20.0552 13.4062 19.446 13.4062H16.9609V10.0039C16.9609 9.16245 17.6429 8.48047 18.4844 8.48047H19.7539C20.3149 8.48047 20.7695 8.02582 20.7695 7.46484V6.43752C20.7695 5.91721 20.3766 5.48001 19.8588 5.42725C19.3439 5.37488 18.799 5.33203 18.4844 5.33203C17.2999 5.33203 16.1127 5.83171 15.2272 6.70273C14.315 7.60013 13.8125 8.77563 13.8125 10.0128V13.4062H11.5273C10.9664 13.4062 10.5117 13.8609 10.5117 14.4219V15.5391C10.5117 16.1 10.9664 16.5547 11.5273 16.5547H13.8125V23.9688H4.0625C2.94254 23.9688 2.03125 23.0575 2.03125 21.9375V4.0625C2.03125 2.94254 2.94254 2.03125 4.0625 2.03125H21.9375C23.0575 2.03125 23.9688 2.94254 23.9688 4.0625V16.8594C23.9688 17.4203 24.4234 17.875 24.9844 17.875Z" fill="#353535"/>
</svg>
