<svg width="150" height="27" viewBox="0 0 150 27" fill="none" xmlns="http://www.w3.org/2000/svg">
<g clip-path="url(#clip0)">
<path d="M38.511 20.1391C38.3456 19.1064 38.2169 18.0551 37.9044 17.0592V17.0408C37.7022 15.7867 37.2978 14.5695 36.875 13.3707C35.239 8.66783 32.7574 4.44447 29.5037 0.700618C28.7868 -0.129301 27.7574 -0.239956 26.875 0.405536C26.5625 0.626847 26.25 0.848159 25.9375 1.08791C23.9338 2.54488 21.9301 4.02029 19.9265 5.47726C19.7794 5.58791 19.614 5.66168 19.4669 5.79078C19.2279 5.99365 19.0441 6.06742 18.75 5.79078C18.1618 5.2375 17.5184 4.72111 16.875 4.2416C14.8897 2.74775 12.7941 1.47521 10.5147 0.553077C9.50368 0.147339 8.45588 0.608405 8.06985 1.62275C7.70221 2.60021 7.37132 3.59611 7.02206 4.57357C6.41544 6.15963 5.84559 7.76414 5.33088 9.36865C4.74265 10.8625 4.20956 12.3748 3.69485 13.9055L2.04044 18.5346C1.41544 20.2129 0.790441 21.8912 0.238971 23.6064C0.202206 23.717 0.165441 23.8277 0.128676 23.9383V23.9568C0.110294 24.0121 0.0919118 24.049 0.0919118 24.1043C0.0919118 24.1228 0.0919118 24.1412 0.0735294 24.1412C0.0367647 24.3072 0 24.4916 0 24.676C0 25.7641 0.827206 26.6678 1.875 26.7969C1.94853 26.8154 2.04044 26.8154 2.11397 26.8154H30.8824C30.9191 26.8154 36.489 26.8154 36.5257 26.8154C37.5 26.76 38.2904 26.0223 38.4743 25.0449C38.4926 24.9158 38.5294 24.7682 38.5478 24.6391C38.7684 23.1453 38.7316 21.6514 38.511 20.1391ZM10.9007 23.5326C8.65809 23.5326 6.39706 23.5326 4.15441 23.5326C4.08088 23.5326 4.00735 23.551 3.93382 23.5326C3.86029 23.5141 3.78676 23.4773 3.76838 23.3297C3.76838 23.3297 3.76838 23.3297 3.76838 23.3113C4.13603 22.3338 4.50368 21.3748 4.79779 20.3605C4.79779 20.3605 4.79779 20.3605 4.79779 20.342C5.36765 18.9035 5.88235 17.465 6.34191 15.9896C6.36029 15.8973 6.39706 15.8236 6.43382 15.7498C6.5625 15.2887 6.76471 15.2887 7.15074 15.5285C8.40074 16.3031 9.41177 17.299 10.2757 18.4609L10.2941 18.4793C11.0478 19.6781 11.5809 20.9506 11.8199 22.3523C11.9485 23.0715 11.5993 23.5326 10.9007 23.5326ZM22.2059 23.5326C21.489 23.5326 20.7721 23.5326 20.0735 23.5326C18.511 23.5326 16.9301 23.5326 15.3676 23.5326C15.2941 23.5326 15.239 23.4588 15.239 23.385C15.239 22.7764 15.1654 22.1863 15.0368 21.5961C15.0368 21.5592 15.0184 21.5039 15.0184 21.467C14.6507 19.4199 13.7868 17.6125 12.5184 15.9711C11.3787 14.4957 9.98162 13.2969 8.32721 12.4486C7.92279 12.2457 7.75735 12.0428 7.99632 11.6187C8.03309 11.5449 8.03309 11.4527 8.05147 11.3605C8.05147 11.342 8.05147 11.342 8.05147 11.3236C8.06985 11.2867 8.08823 11.2314 8.10662 11.1945C8.56618 10.0879 8.95221 8.92603 9.33823 7.80103C9.48529 7.3584 9.65073 6.91578 9.79779 6.47316C9.79779 6.45472 9.81618 6.43627 9.81618 6.41783C10.0551 5.79078 10.3125 5.16373 10.5147 4.51824C10.625 4.18627 10.7537 4.14939 11.0478 4.29693C12.9779 5.29283 14.761 6.51004 16.3419 8.0039C18.4926 10.0326 20.1471 12.3932 21.3419 15.1043C21.3419 15.1228 21.3603 15.1412 21.3787 15.1412C21.3971 15.1596 21.3971 15.1781 21.4154 15.1965C21.9853 16.6719 22.4816 18.1473 22.739 19.6965C22.9044 20.6371 23.0515 21.5777 23.0699 22.5367C23.0515 23.1268 22.7206 23.5326 22.2059 23.5326ZM24.9081 16.008C24.1912 13.4629 23.0515 11.0469 21.4706 8.90759C21.4522 8.88914 21.4522 8.8707 21.4338 8.8707C21.2684 8.64939 21.25 8.53873 21.489 8.37275C21.8934 8.09611 22.2794 7.76414 22.6838 7.46906C23.7684 6.78668 24.7794 5.97521 25.8272 5.2375C26.3971 4.85021 26.9485 4.44447 27.5 4.02029C27.739 3.83586 27.8676 3.85431 28.0515 4.09406C30.4963 7.17398 32.3713 10.549 33.6397 14.2744C33.6765 14.385 33.7316 14.4957 33.7868 14.5879C33.7868 14.5879 33.7868 14.6064 33.8051 14.6064C34.0625 15.5469 34.3199 16.4875 34.5588 17.4281C34.9816 19.0326 35.1838 20.674 35.3493 22.3338C35.3676 22.5367 35.3676 22.7027 35.3493 22.8502C35.2757 23.2559 35.0551 23.4773 34.614 23.551C34.4853 23.5695 34.3566 23.5879 34.2096 23.5879C34.0809 23.5879 33.9338 23.5879 33.8051 23.5879C31.5809 23.5879 29.8713 23.5879 27.7757 23.5695C27.3162 23.5695 26.9118 23.2559 26.7831 22.8133L24.9081 16.008Z" fill="white"/>
<path d="M46.0294 22.7398L46.5809 22.5738C46.8199 22.5 47.0221 22.4447 47.1507 22.3893C47.2978 22.334 47.3897 22.2602 47.4632 22.1496C47.5368 22.0389 47.5735 21.9098 47.5919 21.7439C47.6103 21.5779 47.6103 21.3381 47.6103 21.043V12.2459C47.6103 11.9693 47.6103 11.748 47.5919 11.582C47.5735 11.416 47.5368 11.2869 47.4816 11.1578C47.4265 11.0287 47.3529 10.918 47.2243 10.8258C47.114 10.7336 46.9485 10.6045 46.7463 10.4754L45.9375 9.92213V9.68238L51.875 9.01844L52.0772 9.14754V11.0656H52.1507C52.8125 10.5123 53.5662 10.0512 54.3934 9.62705C55.2206 9.22131 56.1029 9 57.0404 9C58.6397 9 59.6507 9.70082 60.0919 11.084H60.1654C60.864 10.5307 61.636 10.0328 62.4632 9.62705C63.2904 9.22131 64.1912 9 65.1287 9C66.1213 9 66.9302 9.29508 67.5184 9.88525C68.1066 10.4754 68.4191 11.3607 68.4191 12.541V21.0615C68.4191 21.3566 68.4191 21.5963 68.4375 21.7623C68.4559 21.9283 68.4927 22.0574 68.5662 22.1496C68.6397 22.2418 68.75 22.334 68.8971 22.3893C69.0441 22.4447 69.2463 22.5184 69.5221 22.5922L70.0735 22.7582V23.1455H62.5552V22.7582L63.0331 22.6291C63.2169 22.5738 63.3824 22.5184 63.4927 22.4631C63.6029 22.4078 63.6949 22.334 63.75 22.2418C63.8052 22.1496 63.8419 22.002 63.8603 21.8176C63.8787 21.6332 63.8787 21.375 63.8787 21.0615V13.3893C63.8787 12.6148 63.7684 12.0984 63.5294 11.8217C63.2904 11.5451 62.886 11.416 62.3162 11.416C61.9118 11.416 61.5257 11.4344 61.1581 11.4898C60.7904 11.5451 60.4779 11.6189 60.239 11.6926C60.2574 11.8033 60.2757 11.9693 60.2757 12.1906C60.2757 12.4119 60.2941 12.6148 60.2941 12.7992V21.043C60.2941 21.3566 60.2941 21.5963 60.3125 21.7807C60.3309 21.9652 60.3677 22.0943 60.4228 22.1865C60.4779 22.2787 60.5515 22.3525 60.6802 22.4078C60.7904 22.4631 60.9559 22.5184 61.1581 22.5922L61.5809 22.7213V23.1086H54.4302V22.7213L54.9081 22.5922C55.1103 22.5369 55.2757 22.4816 55.386 22.4262C55.4963 22.3709 55.5882 22.2971 55.6434 22.1865C55.6985 22.0758 55.7353 21.9467 55.7537 21.7623C55.7721 21.5779 55.7721 21.3381 55.7721 21.0246V13.3893C55.7721 12.6148 55.6618 12.0984 55.4228 11.8217C55.2022 11.5451 54.7978 11.416 54.2463 11.416C53.8419 11.416 53.4559 11.4529 53.0882 11.5082C52.7206 11.5635 52.4081 11.6373 52.1691 11.7295V21.0615C52.1691 21.375 52.1691 21.6148 52.1875 21.7992C52.2059 21.9836 52.2427 22.1127 52.2978 22.2234C52.3529 22.334 52.4265 22.4078 52.5551 22.4631C52.6654 22.5184 52.8309 22.5738 53.0331 22.6291L53.511 22.7582V23.1455H46.0294V22.7398Z" fill="white"/>
<path d="M76.6178 23.459C74.2649 23.459 72.5185 22.8504 71.3788 21.6332C70.2391 20.416 69.6509 18.6824 69.6509 16.4139C69.6509 15.1967 69.8531 14.127 70.2575 13.2049C70.6619 12.2828 71.195 11.5082 71.8568 10.8811C72.5185 10.2541 73.2722 9.79303 74.0994 9.47951C74.9266 9.16598 75.7906 9 76.6546 9C77.5737 9 78.4193 9.11066 79.1546 9.35041C79.8899 9.59016 80.5333 9.95902 81.0663 10.4754C81.5994 10.9918 82.0038 11.6557 82.2796 12.4672C82.5737 13.2787 82.7391 14.2377 82.7575 15.3627H74.1178C74.1178 16.5246 74.2097 17.4836 74.4119 18.2398C74.6141 18.9959 74.9082 19.5861 75.2759 20.0287C75.6435 20.4529 76.1215 20.7664 76.673 20.9508C77.2244 21.1352 77.8678 21.209 78.5847 21.209C79.32 21.209 79.9818 21.1168 80.5884 20.9508C81.1766 20.7848 81.7281 20.5635 82.2428 20.2869V20.7295C82.0222 21.0246 81.7281 21.3381 81.3605 21.6516C80.9928 21.9652 80.5884 22.2602 80.0921 22.5184C79.6141 22.7766 79.081 22.998 78.4928 23.1639C77.9597 23.3668 77.3163 23.459 76.6178 23.459ZM76.4707 9.70082C76.1399 9.70082 75.8274 9.77459 75.5516 9.94057C75.2759 10.1066 75.0369 10.3648 74.8347 10.752C74.6325 11.1393 74.4671 11.6557 74.3568 12.3012C74.2281 12.9467 74.1729 13.7766 74.1546 14.7541L78.3641 14.4959C78.3641 13.5738 78.3274 12.8176 78.2722 12.209C78.2171 11.6004 78.1068 11.1025 77.9597 10.7336C77.8127 10.3648 77.6105 10.1066 77.3899 9.94057C77.1141 9.77459 76.8384 9.70082 76.4707 9.70082Z" fill="white"/>
<path d="M87.7939 23.459C86.4704 23.459 85.4778 23.1639 84.8712 22.5553C84.2462 21.9467 83.9337 20.9693 83.9337 19.623V10.6783H82.4814V10.3832C83.0329 10.1988 83.5476 9.92214 84.0439 9.60862C84.5403 9.27665 84.9998 8.92624 85.441 8.5205C85.8638 8.13321 86.2498 7.69059 86.5807 7.22952C86.9116 6.76845 87.1873 6.28895 87.3895 5.82788H88.4741V9.38731H91.7645L91.5807 10.6783H88.4741V19.5861C88.4741 20.3422 88.5844 20.8402 88.8234 21.0984C89.0623 21.3566 89.5219 21.4857 90.202 21.4857C90.5145 21.4857 90.8454 21.4672 91.1579 21.4119C91.4888 21.3566 91.7461 21.3012 91.9667 21.2459V21.6332C91.7829 21.8176 91.5807 22.0205 91.3417 22.2418C91.1028 22.4447 90.8087 22.6475 90.4594 22.832C90.1101 23.0164 89.7241 23.1639 89.2829 23.2746C88.8601 23.4037 88.3638 23.459 87.7939 23.459Z" fill="white"/>
<path d="M102.151 9.01845C103.217 9.01845 104.062 9.31353 104.651 9.9037C105.257 10.4939 105.551 11.3791 105.551 12.5594V21.0984C105.551 21.3935 105.551 21.6332 105.57 21.7992C105.588 21.9652 105.625 22.0943 105.698 22.1865C105.772 22.2787 105.882 22.3525 106.029 22.4078C106.176 22.4631 106.378 22.5185 106.617 22.5922L107.169 22.7582V23.1455H99.577V22.7582L100.055 22.6291C100.276 22.5738 100.459 22.5185 100.588 22.4631C100.717 22.4078 100.809 22.334 100.864 22.2418C100.919 22.1496 100.956 22.0021 100.974 21.8361C100.992 21.6701 100.992 21.4119 100.992 21.0984V13.3894C100.992 12.6148 100.845 12.0799 100.57 11.8033C100.294 11.5082 99.8711 11.3607 99.3012 11.3607C98.8233 11.3607 98.4189 11.3975 98.0512 11.4529C97.6836 11.5082 97.3711 11.582 97.0954 11.6742V21.0799C97.0954 21.3935 97.0954 21.6516 97.1137 21.8176C97.1321 22.0021 97.1689 22.1312 97.224 22.2234C97.2792 22.3156 97.3895 22.3894 97.5182 22.4447C97.6468 22.5 97.8307 22.5553 98.0512 22.6107L98.5292 22.7398V23.1271H90.9373V22.7398L91.4704 22.5738C91.7277 22.5 91.9299 22.4447 92.077 22.3894C92.224 22.334 92.3159 22.2603 92.3895 22.168C92.463 22.0758 92.4998 21.9467 92.5182 21.7807C92.5365 21.6148 92.5365 21.375 92.5365 21.0799V6.38116C92.5365 6.04919 92.5365 5.77255 92.5182 5.56968C92.4998 5.36681 92.463 5.20083 92.4079 5.07173C92.3527 4.94263 92.2608 4.83198 92.1505 4.73976C92.0218 4.64755 91.8564 4.55534 91.6542 4.44468L90.8086 4.05739V3.7623L96.9851 3.19058L97.1873 3.31968C97.1689 3.61476 97.1505 3.92829 97.1321 4.26025C97.1137 4.55534 97.0954 4.90575 97.0954 5.29304C97.0954 5.68034 97.077 6.08607 97.077 6.5287V10.8996H97.1505C97.8123 10.4016 98.5476 9.97747 99.3748 9.59017C100.239 9.20288 101.139 9.01845 102.151 9.01845Z" fill="white"/>
<path d="M110.57 23.459C109.393 23.459 108.474 23.1639 107.794 22.5922C107.114 22.0205 106.765 21.209 106.765 20.1947C106.765 19.5676 106.875 19.0328 107.114 18.627C107.353 18.2213 107.665 17.8709 108.051 17.5942C108.437 17.3176 108.897 17.0778 109.412 16.9119C109.926 16.7274 110.441 16.5799 110.993 16.4324L114.099 15.584V12.9651C114.099 11.8217 114.007 11.0102 113.823 10.4938C113.64 9.99588 113.198 9.73768 112.518 9.73768C112.114 9.73768 111.82 9.81146 111.654 9.94055C111.471 10.0881 111.379 10.3832 111.342 10.8442C111.305 11.3606 111.25 11.7664 111.158 12.1168C111.066 12.4487 110.956 12.7069 110.79 12.9098C110.625 13.0942 110.423 13.2418 110.165 13.3156C109.908 13.3893 109.614 13.4262 109.265 13.4262C108.64 13.4262 108.162 13.2971 107.831 13.0205C107.5 12.7438 107.353 12.3565 107.353 11.8401C107.353 10.9365 107.868 10.2541 108.879 9.73768C109.89 9.23973 111.397 8.98154 113.364 8.98154C115.018 8.98154 116.323 9.25818 117.243 9.8299C118.162 10.4016 118.64 11.3422 118.64 12.6701V20.1578C118.64 20.6926 118.676 21.0615 118.75 21.2828C118.823 21.5041 118.971 21.6885 119.191 21.836C119.375 21.9283 119.596 21.9836 119.853 22.0389C120.092 22.0758 120.294 22.1127 120.423 22.1127V22.4631C120.184 22.6475 119.798 22.8688 119.265 23.0901C118.732 23.3115 118.051 23.4406 117.224 23.4406C115.662 23.4406 114.706 22.8688 114.357 21.7254H114.246C113.897 22.168 113.437 22.5553 112.849 22.9057C112.279 23.2746 111.526 23.459 110.57 23.459ZM112.757 21.6885C113.401 21.6885 113.86 21.4856 114.099 21.0615V16.5799L113.254 16.6906C112.904 16.7274 112.592 16.8012 112.335 16.8934C112.077 17.0041 111.857 17.1516 111.691 17.336C111.526 17.5205 111.397 17.7787 111.323 18.0922C111.25 18.4057 111.213 18.8115 111.213 19.2725C111.213 20.1578 111.36 20.7664 111.654 21.1352C111.93 21.5041 112.298 21.6885 112.757 21.6885Z" fill="white"/>
<path d="M120.184 22.7397L120.735 22.5738C120.974 22.5 121.176 22.4447 121.305 22.3893C121.452 22.334 121.544 22.2602 121.618 22.168C121.691 22.0758 121.728 21.9467 121.746 21.7807C121.765 21.6147 121.765 21.375 121.765 21.0799V12.2459C121.765 11.9693 121.765 11.7479 121.746 11.582C121.728 11.416 121.691 11.2684 121.636 11.1578C121.581 11.0471 121.507 10.9365 121.379 10.8443C121.268 10.752 121.103 10.6229 120.901 10.4938L120.092 9.94056V9.70081L126.029 9.03687L126.232 9.16597V11.0656H126.305C127.004 10.5492 127.776 10.0881 128.603 9.66392C129.43 9.23974 130.349 9.01843 131.342 9.01843C132.408 9.01843 133.254 9.31351 133.842 9.90368C134.448 10.4938 134.743 11.3791 134.743 12.5594V21.0984C134.743 21.3934 134.743 21.6332 134.761 21.7992C134.779 21.9652 134.816 22.0943 134.89 22.1865C134.963 22.2787 135.073 22.3525 135.22 22.4078C135.368 22.4631 135.57 22.5184 135.809 22.5922L136.36 22.7582V23.1455H128.75V22.7582L129.246 22.6291C129.467 22.5738 129.651 22.5184 129.779 22.4631C129.908 22.4078 130 22.334 130.055 22.2418C130.11 22.1496 130.147 22.002 130.165 21.8361C130.184 21.6701 130.184 21.4119 130.184 21.0984V13.4078C130.184 12.6332 130.037 12.1168 129.761 11.8217C129.485 11.5451 129.062 11.3975 128.493 11.3975C127.996 11.3975 127.573 11.4344 127.224 11.4897C126.856 11.5451 126.562 11.6188 126.287 11.7111V21.0615C126.287 21.375 126.287 21.6332 126.305 21.7992C126.323 21.9836 126.36 22.1127 126.415 22.2234C126.47 22.334 126.581 22.4078 126.709 22.4447C126.838 22.4816 127.004 22.5369 127.224 22.5922L127.72 22.7213V23.1086H120.129V22.7397H120.184Z" fill="white"/>
<path d="M146.342 25.0451C146.342 25.1742 146.342 25.3033 146.36 25.4324C146.379 25.6168 146.415 26.0041 146.287 26.4283C146.176 26.834 146.636 27.1844 146.985 26.9447C146.985 26.9447 147.004 26.9447 147.004 26.9262C147.684 26.4283 148.217 25.8381 148.585 25.1557C148.952 24.4549 149.154 23.6988 149.154 22.8689C149.154 22.2049 149.044 21.6332 148.824 21.1906C148.603 20.7295 148.29 20.3607 147.904 20.1025C147.518 19.8258 147.04 19.6414 146.507 19.5123C145.956 19.3832 145.386 19.3279 144.743 19.3279H139.651C139.173 19.3279 138.842 19.2541 138.658 19.125C138.474 18.9959 138.382 18.8115 138.382 18.5533C138.382 18.2951 138.437 18.0553 138.566 17.834C138.695 17.6312 138.805 17.4652 138.915 17.3545C139.283 17.5021 139.743 17.6127 140.294 17.7234C140.846 17.834 141.397 17.8894 141.967 17.8894C142.757 17.8894 143.493 17.7787 144.191 17.5943C144.89 17.3914 145.496 17.0963 146.029 16.709C146.562 16.3217 146.967 15.8422 147.261 15.2705C147.555 14.6988 147.702 14.0348 147.702 13.2971C147.702 12.6332 147.518 12.0246 147.151 11.5082C146.783 10.9734 146.342 10.5492 145.809 10.1988V10.1435C146.158 9.9037 146.489 9.75616 146.783 9.73771C147.077 9.71927 147.316 9.9037 147.463 10.3094C147.574 10.6045 147.702 10.8443 147.849 10.9918C147.996 11.1578 148.272 11.2316 148.676 11.2316C149.154 11.2316 149.485 11.1025 149.687 10.8258C149.89 10.5492 149.982 10.2357 149.982 9.88525C149.982 9.35042 149.816 8.98157 149.504 8.72337C149.173 8.46517 148.732 8.33607 148.199 8.35452C147.629 8.37296 147.077 8.55739 146.599 8.87091C146.176 9.14755 145.772 9.46107 145.386 9.82993C144.926 9.59017 144.412 9.3873 143.824 9.25821C143.235 9.11066 142.61 9.03689 141.949 9.03689C141.158 9.03689 140.423 9.14755 139.724 9.33198C139.026 9.53484 138.419 9.82993 137.904 10.2357C137.39 10.623 136.985 11.1209 136.691 11.6926C136.397 12.2644 136.25 12.9283 136.25 13.666C136.25 14.459 136.434 15.1414 136.82 15.6947C137.206 16.248 137.739 16.709 138.419 17.0594V17.1148C138.18 17.2623 137.923 17.4283 137.665 17.6496C137.408 17.8525 137.187 18.1107 136.985 18.3689C136.783 18.6455 136.618 18.9406 136.507 19.2725C136.379 19.6045 136.324 19.9365 136.324 20.3238C136.324 21.0062 136.507 21.5779 136.893 22.0205C137.169 22.3525 137.592 22.6107 138.125 22.8135C138.309 22.8873 138.529 22.9426 138.75 22.998V23.0164C139.007 23.0717 139.338 23.1455 139.779 23.1824H143.842C144.724 23.1824 145.349 23.3299 145.754 23.6066C146.158 23.8832 146.342 24.3627 146.342 25.0451ZM143.493 15.3627C143.437 15.8422 143.346 16.2111 143.217 16.4693C143.088 16.7275 142.923 16.9119 142.721 17.0225C142.518 17.1332 142.261 17.1885 141.967 17.1885C141.691 17.1885 141.452 17.1332 141.25 17.0225C141.048 16.9119 140.882 16.709 140.772 16.4324C140.643 16.1557 140.551 15.7685 140.496 15.2705C140.441 14.7725 140.404 14.1639 140.404 13.4078C140.404 12.6701 140.423 12.0615 140.478 11.582C140.533 11.1025 140.625 10.7152 140.735 10.457C140.864 10.1803 141.011 9.99591 141.213 9.88525C141.415 9.7746 141.673 9.71927 141.967 9.71927C142.243 9.71927 142.482 9.7746 142.684 9.88525C142.886 9.99591 143.051 10.1803 143.18 10.4754C143.309 10.7705 143.401 11.1578 143.474 11.6557C143.529 12.1537 143.566 12.7992 143.566 13.5738C143.566 14.2746 143.548 14.8832 143.493 15.3627Z" fill="white"/>
</g>
<defs>
<clipPath id="clip0">
<rect width="150" height="27" fill="white"/>
</clipPath>
</defs>
</svg>
