<svg width="26" height="22" viewBox="0 0 26 22" fill="none" xmlns="http://www.w3.org/2000/svg">
<path d="M22.9152 3.83911L22.9023 3.78912C24.0038 3.12877 24.8933 2.04015 25.289 0.793043C24.2571 1.40698 23.0499 1.87254 21.8359 2.11335C20.8623 1.07611 19.5634 0.437576 18.0273 0.437576C15.0834 0.437576 12.6445 2.82111 12.6445 5.76958C12.6445 6.22145 12.6818 6.65904 12.7316 7.04228C10.1394 6.84094 7.70349 5.99988 5.47587 4.53437C3.53072 3.25493 2.48217 1.95248 2.47324 1.94137C2.1876 1.57936 1.69387 1.45498 1.27116 1.63886C0.848249 1.82275 0.602279 2.26827 0.671904 2.72391C0.696105 2.88121 1.19201 5.99036 3.06595 8.69941C2.62916 8.63137 2.36851 8.50997 2.31852 8.48518C1.95591 8.27035 1.51138 8.30982 1.1815 8.57285C0.849638 8.83747 0.731017 9.28835 0.863325 9.69162C0.906172 9.82254 1.79742 12.4213 5.05157 13.7985C4.35432 13.9997 3.73583 13.9963 3.72789 13.9963C3.72095 13.9963 3.71401 13.9961 3.70706 13.9961C3.27721 13.9961 2.89298 14.2673 2.74956 14.6739C2.60357 15.0871 2.73945 15.5473 3.08619 15.8153C3.16454 15.8758 4.62132 16.9827 6.98879 17.542C6.16062 17.9979 5.18309 18.2722 4.06352 18.3617C2.51411 18.4855 1.26799 18.1919 1.25787 18.1893C0.74272 18.0632 0.217256 18.3543 0.0512253 18.858C-0.114805 19.3616 0.134935 19.9083 0.624297 20.1128C0.770888 20.1739 4.25435 21.6131 7.71896 21.6131C10.1239 21.6131 11.9253 21.3941 13.5592 20.9029C15.5982 20.2898 17.3293 19.2442 18.8509 17.7065C19.2455 17.3078 19.2421 16.6647 18.8434 16.2701C18.4445 15.8756 17.8016 15.879 17.407 16.2779C14.6936 19.0201 11.5716 19.582 7.71896 19.582C7.62871 19.582 7.53845 19.5808 7.448 19.5784C8.52273 19.0851 9.44433 18.3815 10.1803 17.4835C10.4256 17.184 10.4796 16.7712 10.3189 16.4187C10.1584 16.0664 9.8115 15.8361 9.42449 15.8246C8.36404 15.7935 7.42737 15.5904 6.65574 15.3382C7.22861 15.0472 7.7866 14.6338 8.22677 14.0469C8.43823 13.765 8.48841 13.3937 8.35948 13.0658C8.23054 12.7379 7.94073 12.5002 7.59399 12.438C5.88886 12.1315 4.75641 11.4452 4.02187 10.7695C4.43406 10.7481 4.88693 10.6856 5.3755 10.5636C5.73374 10.474 6.01522 10.1971 6.11043 9.8402C6.20565 9.48354 6.09992 9.10308 5.83392 8.84699C4.91331 7.95991 4.24423 6.86058 3.76558 5.82354C3.9326 5.94315 4.10677 6.06356 4.28767 6.18396C6.30384 7.52391 9.61928 9.12113 13.965 9.12113C14.281 9.12113 14.579 8.97335 14.771 8.72242C14.9632 8.47169 15.0275 8.14478 14.9453 7.8397C14.9426 7.82978 14.676 6.82864 14.676 5.76958C14.676 4.895 15.0249 4.06901 15.6587 3.44397C16.296 2.81516 17.1373 2.46882 18.0275 2.46882C18.9275 2.46882 19.7106 2.81694 20.3551 3.50348C20.8205 3.94147 21.3283 5.10943 21.3283 5.81441V6.42974C21.3283 6.45116 21.3305 6.48032 21.3356 6.51483C21.3313 6.55371 21.3283 6.59299 21.3283 6.63286C21.3283 8.94161 20.901 10.9971 20.0582 12.7419C19.8142 13.2471 20.026 13.8543 20.5311 14.0983C20.6735 14.1669 20.8238 14.1994 20.972 14.1994C21.3497 14.1994 21.7121 13.988 21.8873 13.6254C22.8642 11.6027 23.3595 9.25007 23.3595 6.63286C23.3595 6.59418 23.3567 6.55609 23.3526 6.5186C23.3573 6.48369 23.3595 6.45354 23.3595 6.42974V5.7188C24.4029 4.96522 25.2864 3.94742 26.0001 2.87506C25.9999 2.87506 24.1278 3.76215 22.9152 3.83911Z" fill="#353535"/>
</svg>
