<svg width="118" height="104" viewBox="0 0 118 104" fill="none" xmlns="http://www.w3.org/2000/svg">
<g opacity="0.5">
<path d="M2.27014 4.54022C3.52389 4.54022 4.54016 3.52389 4.54016 2.27014C4.54016 1.01639 3.52389 0 2.27014 0C1.01639 0 0 1.01639 0 2.27014C0 3.52389 1.01639 4.54022 2.27014 4.54022Z" fill="black"/>
<path d="M30.4571 4.54022C31.7109 4.54022 32.7273 3.52389 32.7273 2.27014C32.7273 1.01639 31.7109 0 30.4571 0C29.2034 0 28.187 1.01639 28.187 2.27014C28.187 3.52389 29.2034 4.54022 30.4571 4.54022Z" fill="black"/>
<path d="M58.4556 4.54022C59.7093 4.54022 60.7257 3.52389 60.7257 2.27014C60.7257 1.01639 59.7093 0 58.4556 0C57.2018 0 56.1855 1.01639 56.1855 2.27014C56.1855 3.52389 57.2018 4.54022 58.4556 4.54022Z" fill="black"/>
<path d="M86.6427 4.54022C87.8964 4.54022 88.9128 3.52389 88.9128 2.27014C88.9128 1.01639 87.8964 0 86.6427 0C85.3889 0 84.3726 1.01639 84.3726 2.27014C84.3726 3.52389 85.3889 4.54022 86.6427 4.54022Z" fill="black"/>
<path d="M117.1 2.27014C117.1 3.59437 116.154 4.54022 114.83 4.54022C113.506 4.54022 112.56 3.59437 112.56 2.27014C112.56 0.945904 113.506 0 114.83 0C115.965 0 117.1 0.945904 117.1 2.27014Z" fill="black"/>
<path d="M2.27014 29.1332C3.52389 29.1332 4.54016 28.1168 4.54016 26.863C4.54016 25.6093 3.52389 24.5929 2.27014 24.5929C1.01639 24.5929 0 25.6093 0 26.863C0 28.1168 1.01639 29.1332 2.27014 29.1332Z" fill="black"/>
<path d="M30.4571 29.1332C31.7109 29.1332 32.7273 28.1168 32.7273 26.863C32.7273 25.6093 31.7109 24.5929 30.4571 24.5929C29.2034 24.5929 28.187 25.6093 28.187 26.863C28.187 28.1168 29.2034 29.1332 30.4571 29.1332Z" fill="black"/>
<path d="M58.4556 29.1332C59.7093 29.1332 60.7257 28.1168 60.7257 26.863C60.7257 25.6093 59.7093 24.5929 58.4556 24.5929C57.2018 24.5929 56.1855 25.6093 56.1855 26.863C56.1855 28.1168 57.2018 29.1332 58.4556 29.1332Z" fill="black"/>
<path d="M86.6427 29.1332C87.8964 29.1332 88.9128 28.1168 88.9128 26.863C88.9128 25.6093 87.8964 24.5929 86.6427 24.5929C85.3889 24.5929 84.3726 25.6093 84.3726 26.863C84.3726 28.1168 85.3889 29.1332 86.6427 29.1332Z" fill="black"/>
<path d="M117.1 26.863C117.1 28.1873 116.154 29.1332 114.83 29.1332C113.506 29.1332 112.56 28.1873 112.56 26.863C112.56 25.5388 113.506 24.5929 114.83 24.5929C115.965 24.5929 117.1 25.5388 117.1 26.863Z" fill="black"/>
<path d="M2.27014 53.7261C3.52389 53.7261 4.54016 52.7097 4.54016 51.456C4.54016 50.2022 3.52389 49.1858 2.27014 49.1858C1.01639 49.1858 0 50.2022 0 51.456C0 52.7097 1.01639 53.7261 2.27014 53.7261Z" fill="black"/>
<path d="M30.4571 53.7261C31.7109 53.7261 32.7273 52.7097 32.7273 51.456C32.7273 50.2022 31.7109 49.1858 30.4571 49.1858C29.2034 49.1858 28.187 50.2022 28.187 51.456C28.187 52.7097 29.2034 53.7261 30.4571 53.7261Z" fill="black"/>
<path d="M58.4556 53.7261C59.7093 53.7261 60.7257 52.7097 60.7257 51.456C60.7257 50.2022 59.7093 49.1858 58.4556 49.1858C57.2018 49.1858 56.1855 50.2022 56.1855 51.456C56.1855 52.7097 57.2018 53.7261 58.4556 53.7261Z" fill="black"/>
<path d="M86.6427 53.7261C87.8964 53.7261 88.9128 52.7097 88.9128 51.456C88.9128 50.2022 87.8964 49.1858 86.6427 49.1858C85.3889 49.1858 84.3726 50.2022 84.3726 51.456C84.3726 52.7097 85.3889 53.7261 86.6427 53.7261Z" fill="black"/>
<path d="M117.1 51.456C117.1 52.7802 116.154 53.7261 114.83 53.7261C113.506 53.7261 112.56 52.7802 112.56 51.456C112.56 50.1317 113.506 49.1858 114.83 49.1858C115.965 49.1858 117.1 50.3209 117.1 51.456Z" fill="black"/>
<path d="M2.27014 78.5081C3.52389 78.5081 4.54016 77.4918 4.54016 76.238C4.54016 74.9843 3.52389 73.9679 2.27014 73.9679C1.01639 73.9679 0 74.9843 0 76.238C0 77.4918 1.01639 78.5081 2.27014 78.5081Z" fill="black"/>
<path d="M30.4571 78.5081C31.7109 78.5081 32.7273 77.4917 32.7273 76.238C32.7273 74.9842 31.7109 73.9678 30.4571 73.9678C29.2034 73.9678 28.187 74.9842 28.187 76.238C28.187 77.4917 29.2034 78.5081 30.4571 78.5081Z" fill="black"/>
<path d="M58.4556 78.5081C59.7093 78.5081 60.7257 77.4917 60.7257 76.238C60.7257 74.9842 59.7093 73.9678 58.4556 73.9678C57.2018 73.9678 56.1855 74.9842 56.1855 76.238C56.1855 77.4917 57.2018 78.5081 58.4556 78.5081Z" fill="black"/>
<path d="M86.6427 78.5081C87.8964 78.5081 88.9128 77.4917 88.9128 76.238C88.9128 74.9842 87.8964 73.9678 86.6427 73.9678C85.3889 73.9678 84.3726 74.9842 84.3726 76.238C84.3726 77.4917 85.3889 78.5081 86.6427 78.5081Z" fill="black"/>
<path d="M117.1 76.238C117.1 77.5622 116.154 78.5081 114.83 78.5081C113.506 78.5081 112.56 77.5622 112.56 76.238C112.56 74.9137 113.506 73.9678 114.83 73.9678C115.965 73.9678 117.1 74.9137 117.1 76.238Z" fill="black"/>
<path d="M4.54016 100.831C4.54016 102.155 3.59437 103.101 2.27014 103.101C0.945904 103.101 0 102.155 0 100.831C0 99.5067 0.945904 98.5608 2.27014 98.5608C3.59437 98.5608 4.54016 99.5067 4.54016 100.831Z" fill="black"/>
<path d="M32.7273 100.831C32.7273 102.155 31.7814 103.101 30.4571 103.101C29.1329 103.101 28.187 102.155 28.187 100.831C28.187 99.5067 29.1329 98.5608 30.4571 98.5608C31.7814 98.5608 32.7273 99.5067 32.7273 100.831Z" fill="black"/>
<path d="M60.7257 100.831C60.7257 102.155 59.7798 103.101 58.4556 103.101C57.1313 103.101 56.1855 102.155 56.1855 100.831C56.1855 99.5067 57.1313 98.5608 58.4556 98.5608C59.7798 98.5608 60.7257 99.5067 60.7257 100.831Z" fill="black"/>
<path d="M88.9128 100.831C88.9128 102.155 87.9669 103.101 86.6427 103.101C85.3185 103.101 84.3726 102.155 84.3726 100.831C84.3726 99.5067 85.3185 98.5608 86.6427 98.5608C87.9669 98.5608 88.9128 99.5067 88.9128 100.831Z" fill="black"/>
<path d="M117.1 100.831C117.1 102.155 116.154 103.101 114.83 103.101C113.506 103.101 112.56 102.155 112.56 100.831C112.56 99.5067 113.506 98.5608 114.83 98.5608C115.965 98.5608 117.1 99.5067 117.1 100.831Z" fill="black"/>
</g>
</svg>
